<svg id="Слой_1" data-name="Слой 1" xmlns="http://www.w3.org/2000/svg" xmlns:xlink="http://www.w3.org/1999/xlink" viewBox="0 0 150 150"><defs><style>.cls-1,.cls-6{fill:none;}.cls-2{fill:#fff;}.cls-2,.cls-4,.cls-5{fill-rule:evenodd;}.cls-3{clip-path:url(#clip-path);}.cls-4{fill:#ffcb00;}.cls-5{fill:#0e3b0d;}.cls-6{stroke:#0e3b0d;stroke-width:0.16px;}</style><clipPath id="clip-path"><rect class="cls-1" width="150" height="151.71"/></clipPath></defs><title>logo</title><path class="cls-2" d="M29.56,30.81a63.38,63.38,0,1,1,0,89.63,63.38,63.38,0,0,1,0-89.63Zm0,0"/><g class="cls-3"><path class="cls-4" d="M39.73,41a49,49,0,1,1,0,69.29,49,49,0,0,1,0-69.29Zm0,0"/></g><path class="cls-4" d="M74.37,5.52a3.3,3.3,0,0,1,6-.39c1.48-2,3.45.14,5.49-.59-.17,2.72-3.58,3.35-5.3,1.57a2.21,2.21,0,0,1-3,2.58,1.65,1.65,0,0,1-1-1.57.93.93,0,0,1,1.72-.4,1.25,1.25,0,0,1,.1.74A1.16,1.16,0,0,0,79,6.15a1.7,1.7,0,0,0-2.9-.52A2.53,2.53,0,0,0,76,8.71a3.2,3.2,0,0,0,3.43,1.06,2.61,2.61,0,0,0,2.06-2c1.39,1.2,2.87.23,4.2-.51,3.08-1.71,3.05-2.71,7.64-2.11-3.66,1.08-6.51,3.8-10.07,5.14-3.12,1.18-7.14,1.78-8.91-1.32-1.77,3.1-5.78,2.5-8.9,1.32C61.91,8.92,59.06,6.2,55.4,5.12,60,4.52,60,5.52,63,7.23c1.33.74,2.81,1.71,4.2.51a2.61,2.61,0,0,0,2.05,2,3.21,3.21,0,0,0,3.44-1.06,2.56,2.56,0,0,0-.09-3.08,1.7,1.7,0,0,0-2.91.52,1.16,1.16,0,0,0,.52,1.31,1.25,1.25,0,0,1,.1-.74.92.92,0,0,1,1.71.4,1.64,1.64,0,0,1-1,1.57,2.21,2.21,0,0,1-3-2.58C66.43,7.89,63,7.26,62.86,4.54c2,.73,4-1.46,5.48.59a3.29,3.29,0,0,1,6,.39ZM4.27,75.62a3.29,3.29,0,0,1-.39-6c-2-1.48.14-3.45-.59-5.48,2.72.16,3.35,3.57,1.57,5.29a2.21,2.21,0,0,1,2.58,3,1.63,1.63,0,0,1-1.57,1,.91.91,0,0,1-.4-1.7,1.11,1.11,0,0,1,.74-.11A1.16,1.16,0,0,0,4.9,71a1.7,1.7,0,0,0-.52,2.91A2.55,2.55,0,0,0,7.46,74a3.23,3.23,0,0,0,1.06-3.44,2.61,2.61,0,0,0-2-2.05c1.2-1.39.23-2.87-.51-4.2-1.71-3.08-2.71-3-2.1-7.64C5,60.31,7.67,63.16,9,66.72c1.17,3.12,1.78,7.13-1.32,8.9,3.1,1.77,2.49,5.79,1.32,8.91C7.67,88.09,5,90.94,3.88,94.6,3.27,90,4.27,90,6,87c.74-1.33,1.71-2.81.51-4.19a2.63,2.63,0,0,0,2-2.07,3.22,3.22,0,0,0-1.06-3.43,2.53,2.53,0,0,0-3.08.1,1.7,1.7,0,0,0,.52,2.9,1.16,1.16,0,0,0,1.31-.52,1.18,1.18,0,0,1-.74-.11.92.92,0,0,1,.4-1.71,1.65,1.65,0,0,1,1.57,1,2.21,2.21,0,0,1-2.58,3C6.64,83.57,6,87,3.29,87.15c.73-2-1.46-4,.59-5.49a3.3,3.3,0,0,1,.39-6Zm140.2,0a3.29,3.29,0,0,0,.4-6c2-1.48-.14-3.45.59-5.48-2.72.16-3.35,3.57-1.56,5.29a2.21,2.21,0,0,0-2.58,3,1.62,1.62,0,0,0,1.57,1,.91.91,0,0,0,.39-1.7,1.11,1.11,0,0,0-.74-.11,1.17,1.17,0,0,1,1.32-.52,1.7,1.7,0,0,1,.51,2.91,2.55,2.55,0,0,1-3.08.09,3.23,3.23,0,0,1-1.06-3.44,2.63,2.63,0,0,1,2-2.05c-1.19-1.39-.22-2.87.52-4.2,1.7-3.08,2.71-3,2.1-7.64-1.06,3.66-3.79,6.51-5.13,10.07-1.18,3.12-1.79,7.13,1.32,8.9-3.11,1.77-2.5,5.79-1.32,8.91,1.34,3.56,4.07,6.41,5.13,10.07.61-4.59-.4-4.56-2.1-7.64-.74-1.33-1.71-2.81-.52-4.19a2.65,2.65,0,0,1-2-2.07,3.22,3.22,0,0,1,1.06-3.43,2.53,2.53,0,0,1,3.08.1,1.7,1.7,0,0,1-.51,2.9,1.17,1.17,0,0,1-1.32-.52,1.18,1.18,0,0,0,.74-.11.92.92,0,0,0-.39-1.71,1.64,1.64,0,0,0-1.57,1,2.21,2.21,0,0,0,2.58,3c-1.79,1.72-1.16,5.14,1.56,5.3-.73-2,1.46-4-.59-5.49a3.29,3.29,0,0,0-.4-6Zm-5.76,32.76a2.8,2.8,0,0,0-2-.25c-1.09.3-1.45,1.22-1.64,2.24a2.47,2.47,0,0,0-2.79-.34c-.81.45-1.38,1.71-.64,2.47a.93.93,0,0,0,1.61-.54.75.75,0,0,0-.52-.72,1.18,1.18,0,0,1,1.35.11,1.48,1.48,0,0,1-.41,2.33,2.29,2.29,0,0,1-2.92-.8c-1.22-2.32,1.23-4.84,3.77-4.08.64-2,2.09-1.59,3.85-2.47a7.34,7.34,0,0,0,3.75-4.3,22.69,22.69,0,0,1-6.14,3.46c-2.18.85-4.14,1.55-5.61,2.91-2.29,2.11-2.12,5.25-1.78,8-1-1.14-2.92-.51-3.53.38a3.15,3.15,0,0,1,3.26,2.56,4.1,4.1,0,0,1-.3,2.48,2.82,2.82,0,0,1-1.8,1.47c-1.48.43-2.83-.32-2.85-1.85a1.35,1.35,0,0,1,1.35-1.5.89.89,0,1,1-.08,1.77,1.39,1.39,0,0,0,1,.54,1.52,1.52,0,0,0,1.47-1.52c.17-1.9-2-2.89-3.59-2.21a3.41,3.41,0,0,0-1.76,4.43,3.41,3.41,0,0,0-4.43,1.76c-.68,1.64.31,3.76,2.22,3.59a1.52,1.52,0,0,0,1.51-1.47,1.4,1.4,0,0,0-.54-1,.88.88,0,0,1-.87,1,.89.89,0,0,1-.91-.92,1.37,1.37,0,0,1,1.51-1.35c1.53,0,2.28,1.37,1.86,2.85a2.87,2.87,0,0,1-1.48,1.8,4.1,4.1,0,0,1-2.48.3,3.14,3.14,0,0,1-2.56-3.26c-.88.61-1.52,2.58-.38,3.53-2.78-.34-5.92-.51-8,1.78-1.36,1.48-2.06,3.44-2.92,5.61a22.42,22.42,0,0,1-3.46,6.14,7.36,7.36,0,0,0,4.31-3.75c.88-1.76.52-3.21,2.47-3.85-.76-2.54,1.76-5,4.08-3.77a2.28,2.28,0,0,1,.79,2.92,1.47,1.47,0,0,1-2.31.42A1.17,1.17,0,0,1,110,134a.76.76,0,0,0,.72.53.93.93,0,0,0,.53-1.62c-.75-.73-2-.17-2.46.65a2.46,2.46,0,0,0,.34,2.78c-1,.19-1.94.55-2.24,1.64a2.8,2.8,0,0,0,.25,2c.68-1.58,1.53-1.86,3.61-2.36s3-1.42,3.32-2.62a3.63,3.63,0,0,0-1-3.72,10,10,0,0,1,2.26.2,1.63,1.63,0,0,0,1,2.59c-.33-2.07,1.61-2.29,3.09-2.66,3.19-.79,5.17-2.53,4.8-6,3.45.37,5.19-1.61,6-4.8.36-1.48.59-3.42,2.66-3.09a1.63,1.63,0,0,0-2.6-1,10.52,10.52,0,0,1-.19-2.26,3.63,3.63,0,0,0,3.72,1c1.2-.37,2.14-1.3,2.62-3.32s.77-2.93,2.36-3.61Zm-6.07-2.93c.26-3.06,3.12-4.13,4.76-4.22a3.38,3.38,0,0,1-2.08-4.4A2.62,2.62,0,0,1,138.59,95c-.75-1.33-1.38-3,0-4.19.1,1.27,1.72,3.19,2,5,.27,1.53-.61,3.32-2.35,2.49a.87.87,0,0,0,.43-1.46c-.55-.56-1.86-.35-1.93,1.14a1.89,1.89,0,0,0,1.82,1.81,2.71,2.71,0,0,0,2.4-.92c1.33-1.45,1.1-3.45.42-5.13a44.29,44.29,0,0,0-2.27-4.15,6.1,6.1,0,0,1-.69-5c1,3.27,4.08,6.39,5,9.8.84,3.23-.71,5.94-3.54,7.61s-5.73,2.47-7.21,3.43Zm6.07-62.58a2.86,2.86,0,0,1-2,.26c-1.09-.3-1.45-1.23-1.64-2.25a2.47,2.47,0,0,1-2.79.34c-.81-.45-1.38-1.72-.64-2.47a.92.92,0,0,1,1.61.54.75.75,0,0,1-.52.72,1.15,1.15,0,0,0,1.35-.12,1.47,1.47,0,0,0-.41-2.32,2.29,2.29,0,0,0-2.92.81c-1.22,2.32,1.23,4.84,3.77,4.07.64,1.95,2.09,1.59,3.85,2.47a7.36,7.36,0,0,1,3.75,4.31A22.42,22.42,0,0,0,136,45.77c-2.18-.86-4.14-1.56-5.61-2.92-2.29-2.12-2.12-5.25-1.78-8-1,1.14-2.92.51-3.53-.38a3.14,3.14,0,0,0,3.26-2.56,4.1,4.1,0,0,0-.3-2.48,2.82,2.82,0,0,0-1.8-1.47,2,2,0,0,0-2.85,1.84,1.37,1.37,0,0,0,1.35,1.52.89.89,0,0,0,.92-.92c0-.43-.29-.86-1-.86a1.35,1.35,0,0,1,1-.54,1.52,1.52,0,0,1,1.47,1.52c.17,1.91-2,2.9-3.59,2.21a3.41,3.41,0,0,1-1.76-4.43,3.41,3.41,0,0,1-4.43-1.77c-.68-1.64.31-3.75,2.22-3.58A1.51,1.51,0,0,1,121,24.38a1.39,1.39,0,0,1-.54,1,.89.89,0,1,0-1.78-.08,1.36,1.36,0,0,0,1.51,1.35c1.53,0,2.28-1.37,1.86-2.86A2.9,2.9,0,0,0,120.6,22a4.1,4.1,0,0,0-2.48-.3A3.14,3.14,0,0,0,115.56,25c-.88-.62-1.52-2.59-.38-3.54-2.78.35-5.92.51-8-1.78-1.36-1.47-2.06-3.43-2.92-5.61a22.28,22.28,0,0,0-3.46-6.14,7.36,7.36,0,0,1,4.31,3.75c.88,1.76.52,3.21,2.47,3.85-.76,2.55,1.76,5,4.08,3.77a2.28,2.28,0,0,0,.79-2.92,1.46,1.46,0,0,0-2.31-.41A1.15,1.15,0,0,0,110,17.3a.73.73,0,0,1,.72-.52.91.91,0,0,1,.53,1.6c-.75.75-2,.18-2.46-.64a2.46,2.46,0,0,1,.34-2.78c-1-.2-1.94-.55-2.24-1.64a2.77,2.77,0,0,1,.25-2c.68,1.57,1.53,1.84,3.61,2.35s3,1.42,3.32,2.61A3.65,3.65,0,0,1,113,20a10.52,10.52,0,0,0,2.26-.19,1.63,1.63,0,0,1,1-2.6c-.33,2.07,1.61,2.3,3.09,2.66,3.19.79,5.17,2.53,4.8,6,3.45-.37,5.19,1.61,6,4.8.36,1.49.59,3.42,2.66,3.1a1.64,1.64,0,0,1-2.6,1A10.38,10.38,0,0,0,130,37a3.6,3.6,0,0,1,3.72-1.05c1.2.36,2.14,1.3,2.62,3.32s.77,2.93,2.36,3.61Zm-6.07,2.93c.26,3.06,3.12,4.13,4.76,4.22a3.38,3.38,0,0,0-2.08,4.41,2.61,2.61,0,0,0,3.27,1.81c-.75,1.34-1.38,3,0,4.2.1-1.26,1.72-3.19,2-5,.27-1.52-.61-3.32-2.35-2.48a.86.86,0,0,1,.43,1.45c-.55.55-1.86.35-1.93-1.13a1.9,1.9,0,0,1,1.82-1.82,2.71,2.71,0,0,1,2.4.92c1.33,1.45,1.1,3.45.42,5.12a44.48,44.48,0,0,1-2.27,4.16,6.12,6.12,0,0,0-.69,5c1-3.27,4.08-6.4,5-9.82.84-3.22-.71-5.94-3.54-7.6s-5.73-2.47-7.21-3.43ZM10,108.38a2.8,2.8,0,0,1,2-.25c1.09.3,1.44,1.22,1.64,2.24a2.46,2.46,0,0,1,2.78-.34c.82.45,1.39,1.71.64,2.47a.92.92,0,0,1-1.6-.54.73.73,0,0,1,.52-.72,1.18,1.18,0,0,0-1.35.11,1.47,1.47,0,0,0,.42,2.33,2.27,2.27,0,0,0,2.9-.8c1.23-2.32-1.22-4.84-3.76-4.08-.64-2-2.09-1.59-3.85-2.47A7.34,7.34,0,0,1,6.66,102a22.69,22.69,0,0,0,6.14,3.46c2.18.85,4.14,1.55,5.61,2.91,2.29,2.11,2.13,5.25,1.78,8,.95-1.14,2.92-.51,3.53.38a3.15,3.15,0,0,0-3.26,2.56,4,4,0,0,0,.3,2.48,2.83,2.83,0,0,0,1.79,1.47c1.49.43,2.84-.32,2.86-1.85a1.36,1.36,0,0,0-1.35-1.5.89.89,0,1,0,.08,1.77,1.39,1.39,0,0,1-1,.54,1.5,1.5,0,0,1-1.46-1.52c-.17-1.9,1.94-2.89,3.58-2.21A3.42,3.42,0,0,1,27,123a3.39,3.39,0,0,1,4.42,1.76c.7,1.64-.3,3.76-2.21,3.59a1.52,1.52,0,0,1-1.51-1.47,1.37,1.37,0,0,1,.54-1,.87.87,0,0,0,.87,1,.89.89,0,0,0,.91-.92,1.37,1.37,0,0,0-1.52-1.35,2,2,0,0,0-1.85,2.85,2.84,2.84,0,0,0,1.48,1.8,4.1,4.1,0,0,0,2.48.3,3.14,3.14,0,0,0,2.56-3.26c.88.61,1.52,2.58.38,3.53,2.78-.34,5.92-.51,8,1.78,1.36,1.48,2.06,3.44,2.92,5.61A22.42,22.42,0,0,0,48,143.34a7.36,7.36,0,0,1-4.31-3.75c-.88-1.76-.52-3.21-2.47-3.85.76-2.54-1.75-5-4.08-3.77a2.3,2.3,0,0,0-.8,2.92,1.48,1.48,0,0,0,2.32.42,1.17,1.17,0,0,0,.12-1.36.77.77,0,0,1-.72.53.93.93,0,0,1-.54-1.62c.75-.73,2-.17,2.47.65a2.46,2.46,0,0,1-.34,2.78c1,.19,1.94.55,2.24,1.64a2.8,2.8,0,0,1-.25,2c-.68-1.58-1.53-1.86-3.62-2.36s-3-1.42-3.31-2.62a3.62,3.62,0,0,1,1.05-3.72,10,10,0,0,0-2.27.2,1.63,1.63,0,0,1-1,2.59c.33-2.07-1.61-2.29-3.09-2.66-3.19-.79-5.17-2.53-4.8-6-3.45.37-5.19-1.61-6-4.8-.36-1.48-.59-3.42-2.66-3.09a1.63,1.63,0,0,1,2.6-1,10.52,10.52,0,0,0,.19-2.26,3.65,3.65,0,0,1-3.73,1c-1.19-.37-2.13-1.3-2.61-3.32s-.78-2.93-2.36-3.61Zm6.07-2.93c-.26-3.06-3.12-4.13-4.76-4.22a3.38,3.38,0,0,0,2.08-4.4A2.62,2.62,0,0,0,10.16,95c.76-1.33,1.38-3,0-4.19-.1,1.27-1.72,3.19-2,5-.25,1.53.62,3.32,2.36,2.49a.86.86,0,0,1-.43-1.46c.54-.56,1.86-.35,1.93,1.14a1.89,1.89,0,0,1-1.82,1.81,2.74,2.74,0,0,1-2.41-.92c-1.32-1.45-1.09-3.45-.41-5.13a44.29,44.29,0,0,1,2.27-4.15,6.06,6.06,0,0,0,.69-5c-1,3.27-4.08,6.39-5,9.8-.84,3.23.72,5.94,3.54,7.61s5.72,2.47,7.21,3.43ZM10,42.87a2.86,2.86,0,0,0,2,.26c1.09-.3,1.44-1.23,1.64-2.25a2.46,2.46,0,0,0,2.78.34c.82-.45,1.39-1.72.64-2.47a.92.92,0,0,0-1.6.54.73.73,0,0,0,.52.72,1.15,1.15,0,0,1-1.35-.12,1.46,1.46,0,0,1,.42-2.32,2.27,2.27,0,0,1,2.9.81c1.23,2.32-1.22,4.84-3.76,4.07-.64,1.95-2.09,1.59-3.85,2.47a7.36,7.36,0,0,0-3.75,4.31,22.42,22.42,0,0,1,6.14-3.46c2.18-.86,4.14-1.56,5.61-2.92,2.29-2.12,2.13-5.25,1.78-8,.95,1.14,2.92.51,3.53-.38a3.14,3.14,0,0,1-3.26-2.56,4,4,0,0,1,.3-2.48,2.83,2.83,0,0,1,1.79-1.47c1.49-.44,2.84.32,2.86,1.84a1.38,1.38,0,0,1-1.35,1.52.88.88,0,0,1-.92-.92c0-.43.29-.86,1-.86a1.35,1.35,0,0,0-1-.54,1.51,1.51,0,0,0-1.46,1.52c-.17,1.91,1.94,2.9,3.58,2.21A3.41,3.41,0,0,0,27,28.27a3.39,3.39,0,0,0,4.42-1.77c.7-1.64-.3-3.75-2.21-3.58a1.51,1.51,0,0,0-1.51,1.46,1.35,1.35,0,0,0,.54,1A.89.89,0,1,1,30,25.31a1.37,1.37,0,0,1-1.52,1.35c-1.52,0-2.28-1.37-1.85-2.86A2.87,2.87,0,0,1,28.15,22a4.1,4.1,0,0,1,2.48-.3A3.14,3.14,0,0,1,33.19,25c.88-.62,1.52-2.59.38-3.54,2.78.35,5.92.51,8-1.78,1.36-1.47,2.06-3.43,2.92-5.61A22.28,22.28,0,0,1,48,7.91a7.36,7.36,0,0,0-4.31,3.75c-.88,1.76-.52,3.21-2.47,3.85.76,2.55-1.75,5-4.08,3.77a2.31,2.31,0,0,1-.8-2.92A1.47,1.47,0,0,1,38.64,16a1.15,1.15,0,0,1,.12,1.35.74.74,0,0,0-.72-.52.92.92,0,0,0-.54,1.6c.75.75,2,.18,2.47-.64A2.46,2.46,0,0,0,39.63,15c1-.2,1.94-.55,2.24-1.64a2.77,2.77,0,0,0-.25-2c-.68,1.57-1.53,1.84-3.62,2.35s-3,1.42-3.31,2.61A3.63,3.63,0,0,0,35.74,20a10.51,10.51,0,0,1-2.27-.19,1.63,1.63,0,0,0-1-2.6c.33,2.07-1.61,2.3-3.09,2.66-3.19.79-5.17,2.53-4.8,6-3.45-.37-5.19,1.61-6,4.8-.36,1.49-.59,3.42-2.66,3.1a1.64,1.64,0,0,0,2.6,1A10.38,10.38,0,0,1,18.74,37,3.61,3.61,0,0,0,15,35.94c-1.19.36-2.13,1.3-2.61,3.32s-.78,2.93-2.36,3.61Zm6.07,2.93C15.85,48.86,13,49.93,11.35,50a3.38,3.38,0,0,1,2.08,4.41,2.61,2.61,0,0,1-3.27,1.81c.76,1.34,1.38,3,0,4.2-.1-1.26-1.72-3.19-2-5-.25-1.52.62-3.32,2.36-2.48a.85.85,0,0,0-.43,1.45c.54.55,1.86.35,1.93-1.13a1.9,1.9,0,0,0-1.82-1.82,2.74,2.74,0,0,0-2.41.92c-1.32,1.45-1.09,3.45-.41,5.12a44.48,44.48,0,0,0,2.27,4.16,6.08,6.08,0,0,1,.69,5c-1-3.27-4.08-6.4-5-9.82-.84-3.22.72-5.94,3.54-7.6s5.72-2.47,7.21-3.43Zm58.26,99.93a3.3,3.3,0,0,0,6,.39c1.48,2,3.45-.14,5.49.59-.17-2.72-3.58-3.35-5.3-1.57a2.2,2.2,0,0,0-3-2.57,1.64,1.64,0,0,0-1,1.57.93.93,0,0,0,1.72.39,1.25,1.25,0,0,0,.1-.74,1.17,1.17,0,0,1,.52,1.32,1.7,1.7,0,0,1-2.9.51,2.53,2.53,0,0,1-.1-3.08,3.22,3.22,0,0,1,3.43-1.06,2.61,2.61,0,0,1,2.06,2c1.39-1.19,2.87-.21,4.2.52,3.08,1.71,3.05,2.71,7.64,2.1-3.66-1.06-6.51-3.79-10.07-5.13-3.12-1.18-7.14-1.79-8.91,1.32-1.77-3.11-5.78-2.5-8.9-1.32-3.56,1.34-6.41,4.07-10.07,5.13,4.6.61,4.56-.39,7.64-2.1,1.33-.73,2.81-1.71,4.2-.52a2.61,2.61,0,0,1,2.05-2,3.23,3.23,0,0,1,3.44,1.06,2.56,2.56,0,0,1-.09,3.08,1.7,1.7,0,0,1-2.91-.51,1.17,1.17,0,0,1,.52-1.32,1.25,1.25,0,0,0,.1.74.92.92,0,0,0,1.71-.39,1.64,1.64,0,0,0-1-1.57,2.2,2.2,0,0,0-3,2.57c-1.72-1.78-5.13-1.15-5.29,1.57,2-.73,4,1.46,5.48-.59a3.29,3.29,0,0,0,6-.39ZM44.55,133.9c3.06.25,4.13,3.11,4.22,4.75a3.37,3.37,0,0,1,4.4-2.07A2.59,2.59,0,0,1,55,139.83c1.34-.74,3-1.37,4.2,0-1.27.11-3.19,1.72-5,2-1.52.27-3.32-.61-2.49-2.35a.87.87,0,0,0,1.46.43c.55-.55.35-1.86-1.14-1.93a1.89,1.89,0,0,0-1.81,1.82,2.72,2.72,0,0,0,.91,2.4c1.46,1.33,3.46,1.1,5.13.42a44.48,44.48,0,0,0,4.16-2.27,6.1,6.1,0,0,1,5-.69c-3.27,1-6.39,4.08-9.81,5-3.22.84-5.94-.71-7.6-3.54s-2.47-5.72-3.43-7.2Zm59.65,0c-3.06.25-4.13,3.11-4.22,4.75a3.37,3.37,0,0,0-4.4-2.07,2.58,2.58,0,0,0-1.82,3.25c-1.34-.74-3-1.37-4.2,0,1.27.11,3.19,1.72,5,2,1.52.27,3.32-.61,2.49-2.35a.87.87,0,0,1-1.46.43c-.56-.55-.35-1.86,1.14-1.93a1.89,1.89,0,0,1,1.81,1.82,2.72,2.72,0,0,1-.91,2.4c-1.46,1.33-3.46,1.1-5.14.42a44.29,44.29,0,0,1-4.15-2.27,6.1,6.1,0,0,0-5-.69c3.27,1,6.39,4.08,9.81,5,3.22.84,5.93-.71,7.6-3.54s2.47-5.72,3.43-7.2ZM44.55,17.36c3.06-.26,4.13-3.12,4.22-4.76a3.38,3.38,0,0,0,4.4,2.08A2.61,2.61,0,0,0,55,11.41c1.34.76,3,1.38,4.2,0-1.27-.1-3.19-1.72-5-2-1.52-.26-3.32.61-2.49,2.35a.87.87,0,0,1,1.46-.43c.55.55.35,1.86-1.14,1.93a1.89,1.89,0,0,1-1.81-1.82A2.73,2.73,0,0,1,51.09,9c1.46-1.33,3.46-1.1,5.13-.42a44.48,44.48,0,0,1,4.16,2.27,6.06,6.06,0,0,0,5,.69c-3.27-1-6.39-4.08-9.81-5-3.22-.84-5.94.72-7.6,3.54s-2.47,5.72-3.43,7.21Zm59.65,0c-3.06-.26-4.13-3.12-4.22-4.76a3.39,3.39,0,0,1-4.4,2.08,2.6,2.6,0,0,1-1.82-3.27c-1.34.76-3,1.38-4.2,0,1.27-.1,3.19-1.72,5-2,1.52-.26,3.32.61,2.49,2.35a.87.87,0,0,0-1.46-.43c-.56.55-.35,1.86,1.14,1.93a1.89,1.89,0,0,0,1.81-1.82A2.73,2.73,0,0,0,97.66,9c-1.46-1.33-3.46-1.1-5.14-.42a44.29,44.29,0,0,0-4.15,2.27,6.06,6.06,0,0,1-5,.69c3.27-1,6.39-4.08,9.81-5,3.22-.84,5.93.72,7.6,3.54s2.47,5.72,3.43,7.21Zm0,0"/><path class="cls-5" d="M43,44.23H61.4l13-13,13,13h18.37V62.65l13,13-13,13V107H87.35l-13,13-13-13H43V88.6l-13-13,13-13Zm0,0"/><path class="cls-6" d="M43,44.23H61.4l13-13,13,13h18.37V62.65l13,13-13,13V107H87.35l-13,13-13-13H43V88.6l-13-13,13-13Zm0,0"/><path class="cls-2" d="M49.33,69v2.61h2.49V83.32H46.53v3.54l26.17,0V73.15L68.94,69Zm28.91,0,0,17.86,24,0,0-12.23H97.77V69Zm19.54,8.74-15.39,0v5.65l15.39,0ZM82.42,71.59l0,3.06H93.79V71.54ZM74.82,48.1V66h4.07l0-14.76h3.7V62.79H93.89V51.26h3.89V66h4.45V48.1H90.09l0,11.57H86.45l0-11.57Zm-28.29,0V66H65.3l2.29,2.63,2.1-2.17-1.32-1.74V48.1ZM50.66,51V63H61.77L60,61.12l2.31-2.55,2.18,2.24V51ZM56,71.59V83.33H68.48V73.19l-1.43-1.6Zm0,0"/><path class="cls-5" d="M44.93,127.88l-2.56-1.58.1-.17a.7.7,0,0,0,.52.06c.11,0,.27-.2.46-.52l1.2-1.93c.17-.26.26-.43.29-.47a.73.73,0,0,0,.05-.55.63.63,0,0,0-.22-.24,1.38,1.38,0,0,0-1.22,0l-1.44,2.32a1.49,1.49,0,0,0-.28.63.67.67,0,0,0,.3.45l-.1.16-2.56-1.58.1-.17a.85.85,0,0,0,.57.11c.1,0,.25-.21.46-.54l2.72-4.39a2.07,2.07,0,0,0,.28-.56.7.7,0,0,0-.34-.55l.11-.17,2.05,1.28L43.87,122a2.64,2.64,0,0,1,1.9.24,1.71,1.71,0,0,1,.66.7,1.23,1.23,0,0,1,.13.85,4.25,4.25,0,0,1-.55,1.13l-1,1.68a2.5,2.5,0,0,0-.27.56.7.7,0,0,0,.34.55Zm6.27,2.4a1.84,1.84,0,0,1-1.63,0c-.6-.31-.82-.73-.65-1.25a3.39,3.39,0,0,1-2.11-.15,1.29,1.29,0,0,1-.63-.63.9.9,0,0,1,0-.8c.23-.45.8-.7,1.7-.74a17.9,17.9,0,0,1,2.13.12l.22-.46a2.67,2.67,0,0,0,.23-.49.63.63,0,0,0-.09-.55,1.1,1.1,0,0,0-.36-.31,1.38,1.38,0,0,0-.68-.15.25.25,0,0,0-.25.12c0,.07,0,.18,0,.33a.67.67,0,0,1,0,.52.53.53,0,0,1-.43.3.91.91,0,0,1-.61-.11,1.13,1.13,0,0,1-.49-.45.6.6,0,0,1,0-.59,1,1,0,0,1,.77-.53,2.42,2.42,0,0,1,1,0,5.18,5.18,0,0,1,1.29.44,3,3,0,0,1,1,.73,1.41,1.41,0,0,1,.38,1,4.18,4.18,0,0,1-.39,1l-.9,1.76c-.14.29-.18.48-.13.57a.18.18,0,0,0,.11.1.46.46,0,0,0,.39,0Zm-2.09-1.56.76-1.53c-1,0-1.67.22-1.88.64a.56.56,0,0,0,0,.49.64.64,0,0,0,.33.34,1.34,1.34,0,0,0,.8.06Zm5.29,3.42-3-1.13.07-.19a.83.83,0,0,0,.6,0c.12-.05.23-.24.36-.58l1.85-4.93a1.31,1.31,0,0,0,.12-.61c0-.16-.19-.3-.48-.44l.07-.19,2.33.88-2.22,5.92a1.25,1.25,0,0,0-.13.61c0,.16.21.32.51.45Zm6.32,1.15a1.75,1.75,0,0,1-1.58.36c-.65-.17-1-.54-.89-1.09a3.24,3.24,0,0,1-2.1.28,1.22,1.22,0,0,1-.74-.49.94.94,0,0,1-.14-.78c.14-.49.64-.85,1.53-1.08a16.5,16.5,0,0,1,2.1-.3l.13-.49c.08-.3.12-.47.13-.54a.68.68,0,0,0-.2-.52,1.12,1.12,0,0,0-.42-.22,1.29,1.29,0,0,0-.7,0c-.13,0-.2.09-.22.17a.42.42,0,0,0,.1.32.66.66,0,0,1,.11.5.52.52,0,0,1-.35.38.94.94,0,0,1-.62,0,1.06,1.06,0,0,1-.57-.34.59.59,0,0,1-.17-.57,1.08,1.08,0,0,1,.65-.68,2.47,2.47,0,0,1,1-.21,4.81,4.81,0,0,1,1.35.17,2.87,2.87,0,0,1,1.08.53,1.4,1.4,0,0,1,.58.92,4.26,4.26,0,0,1-.19,1l-.52,1.91c-.08.31-.09.51,0,.58a.2.2,0,0,0,.13.08.48.48,0,0,0,.38-.11Zm-2.36-1.1.44-1.65c-1,.21-1.59.55-1.71,1a.55.55,0,0,0,.09.49.6.6,0,0,0,.39.25,1.29,1.29,0,0,0,.79-.09Zm5.82,2.54L61,134.05l0-.2a.77.77,0,0,0,.6-.07c.1-.06.19-.27.27-.62L63.07,128a1.41,1.41,0,0,0,0-.62c-.06-.16-.24-.28-.55-.36l0-.2,2.43.53-1.35,6.18a1.12,1.12,0,0,0,0,.62c.05.16.24.28.56.37Zm7,.62-2.54.1.09-.8a2.21,2.21,0,0,1-1.69.61,2.12,2.12,0,0,1-1.67-1.08,2.8,2.8,0,0,1-.32-1.79,2.6,2.6,0,0,1,1.53-2.29,2.47,2.47,0,0,1,1.26-.18,2.11,2.11,0,0,1,1.37.81l.19-1.52a2.26,2.26,0,0,0,0-.71c-.07-.21-.33-.35-.76-.4l0-.23,2.62.32L70.64,134a3.42,3.42,0,0,0,0,.7c0,.23.25.39.63.46Zm-2.37-1.29.32-2.66a1.34,1.34,0,0,0-1-.91c-.35,0-.63.16-.85.6a4,4,0,0,0-.31,1.28c-.13,1.09,0,1.81.36,2.15a.6.6,0,0,0,.38.15,1.32,1.32,0,0,0,1.14-.61Zm8.94.73a1.79,1.79,0,0,1-1.42.79c-.68,0-1.07-.25-1.17-.79a3.42,3.42,0,0,1-1.93.86,1.35,1.35,0,0,1-.85-.27.91.91,0,0,1-.35-.71c0-.52.38-1,1.16-1.46a15.09,15.09,0,0,1,1.93-.89v-.51c0-.3,0-.48,0-.55a.64.64,0,0,0-.34-.43.89.89,0,0,0-.46-.1,1.37,1.37,0,0,0-.68.17c-.11.07-.16.14-.16.23s.07.17.18.28a.65.65,0,0,1,.26.45.57.57,0,0,1-.24.47,1,1,0,0,1-.59.18,1.07,1.07,0,0,1-.65-.16.63.63,0,0,1-.31-.51,1.09,1.09,0,0,1,.42-.83,2.72,2.72,0,0,1,.93-.48,5,5,0,0,1,1.34-.23,3.14,3.14,0,0,1,1.18.21,1.39,1.39,0,0,1,.82.73,3.68,3.68,0,0,1,.11,1l0,2c0,.33.06.52.14.57a.26.26,0,0,0,.15,0,.45.45,0,0,0,.33-.21Zm-2.59-.4,0-1.7c-.92.48-1.37,1-1.37,1.44a.59.59,0,0,0,.23.44.66.66,0,0,0,.44.14,1.27,1.27,0,0,0,.73-.32Zm13.22-.34-3,.49,0-.19a.75.75,0,0,0,.49-.32,1.14,1.14,0,0,0,0-.69l-.36-2.16c-.1-.63-.25-1-.44-1.08a.63.63,0,0,0-.34,0,1.58,1.58,0,0,0-1,.86l.44,2.69a1.32,1.32,0,0,0,.23.66.67.67,0,0,0,.58.13l0,.2-3,.5,0-.2c.3-.07.48-.2.52-.42a2.71,2.71,0,0,0-.06-.58L82,131.76c-.06-.35-.09-.55-.11-.6a.73.73,0,0,0-.34-.49.81.81,0,0,0-.34,0,1.55,1.55,0,0,0-1,.86l.45,2.69a1.74,1.74,0,0,0,.16.61.64.64,0,0,0,.61.19l0,.2-3,.5,0-.2a.81.81,0,0,0,.49-.29,1.39,1.39,0,0,0,0-.71l-.47-2.84a1.43,1.43,0,0,0-.16-.6.65.65,0,0,0-.61-.19l0-.2,2.39-.39.11.67a2.64,2.64,0,0,1,1.66-1.11,1.55,1.55,0,0,1,1.69.66,2.84,2.84,0,0,1,1.78-1.23,1.44,1.44,0,0,1,1.61.59,3.93,3.93,0,0,1,.33,1.16l.34,2.05a1.93,1.93,0,0,0,.16.61c.1.15.3.21.62.19Zm6.83-2.2-2.31.76-.21-.65a2.53,2.53,0,0,1-1.45,1.36,1.65,1.65,0,0,1-.91,0,1.16,1.16,0,0,1-.71-.43,3.64,3.64,0,0,1-.52-1.13l-.63-1.92a1.55,1.55,0,0,0-.25-.57c-.12-.13-.33-.16-.63-.1l-.06-.18,2.3-.76,1.08,3.31c.16.5.34.77.54.82a.52.52,0,0,0,.3,0c.3-.09.55-.41.76-1l-.84-2.6a2.21,2.21,0,0,0-.25-.56.65.65,0,0,0-.64-.09l-.06-.2,2.3-.75L94.29,131a2,2,0,0,0,.25.57.65.65,0,0,0,.64.09ZM97.81,130a.79.79,0,0,1,0,.7,1.1,1.1,0,0,1-.58.54,1.12,1.12,0,0,1-.8.06.81.81,0,0,1-.51-1.17,1.13,1.13,0,0,1,.58-.54,1.12,1.12,0,0,1,.8-.06.8.8,0,0,1,.54.47Zm7.44-2.73-2.75,1.36-.09-.18c.23-.12.32-.23.25-.36s-.18-.17-.43-.29l-1.71-.81-.2.46.4.82a1.82,1.82,0,0,0,.34.53.65.65,0,0,0,.64,0l.09.18L99,130.29l-.09-.18a.78.78,0,0,0,.38-.42c0-.1,0-.33-.21-.68l-2.28-4.63a1.78,1.78,0,0,0-.33-.53.7.7,0,0,0-.64,0l-.09-.17L98,122.6,100.1,127l.72-1.65c.23-.51.3-.84.21-1s-.35-.21-.78,0l-.1-.2,2.4-1.17.09.19a1.92,1.92,0,0,0-.73.74c-.06.11-.21.42-.44.93l-.34.77,2,1c.82.38,1.3.59,1.42.63a.9.9,0,0,0,.58-.06Zm2.09-7.56,0,5.62.33-.23a4.27,4.27,0,0,0,1.22-1.14,1.9,1.9,0,0,0,.1-1.48l.14-.1.85,1.53-4.24,3-.07-.1,0-5.67-.78.55c-.55.37-.83.73-.86,1.07a2.48,2.48,0,0,0,.16.82l-.19.12-.85-1.21,4.1-2.86Zm0,0"/><path class="cls-5" d="M24.61,101.13a4,4,0,0,1,2.28-.55,2.72,2.72,0,0,1,1.94.9,1.67,1.67,0,0,0,.33-2.15,2.68,2.68,0,0,0-.23-.3l.28-.16a4.6,4.6,0,0,1,.75.94,2.43,2.43,0,0,1,.33,1.52,2.85,2.85,0,0,1-.69,1.5,2.91,2.91,0,0,1-.2,2.14,3.84,3.84,0,0,1-1.64,1.68,3.63,3.63,0,0,1-2.68.48,2.91,2.91,0,0,1-2-1.48,2.94,2.94,0,0,1-.26-2.47,3.75,3.75,0,0,1,1.78-2.05Zm.9,1.32a6,6,0,0,0-1.9,1.47,1.36,1.36,0,0,0-.19,1.55,1.43,1.43,0,0,0,1.66.57,6.41,6.41,0,0,0,1.91-.78,4.84,4.84,0,0,0,2-1.76,1.22,1.22,0,0,0-1-1.82,4.63,4.63,0,0,0-2.44.77Zm-.65-9.19L26,95.91l-.18.08-.05-.11c-.16-.36-.34-.49-.55-.4a1,1,0,0,0-.15.1l-.29.26-.65.64L25,98.42l.71,0a1.41,1.41,0,0,0,.55-.11.46.46,0,0,0,.3-.35,1.72,1.72,0,0,0-.13-.58l.18-.08.8,1.82-.18.08a1,1,0,0,0-.72-.41,6.18,6.18,0,0,0-.92,0L19.73,99l0-.08L24,94.67a3.78,3.78,0,0,0,.72-.87.66.66,0,0,0,0-.46Zm-1,3.51-1.79,1.75,2.51-.09Zm-3-8.63,2.45-.4L24.76,93l-7.15-1.72.23.85a4.44,4.44,0,0,0,.2.65,1.52,1.52,0,0,0,1,.79,2.88,2.88,0,0,0,.86.06l0,.15-2,.37-1.23-4.55,7.15,1.71-.29-1.1a3.61,3.61,0,0,0-.41-1.06,2.31,2.31,0,0,0-2.28-.87ZM22.15,81l.45,2.86-.19,0,0-.12c-.05-.38-.2-.56-.42-.53l-.18.06-.35.19-.79.43L21,86l.69.14a1.65,1.65,0,0,0,.56,0A.48.48,0,0,0,22.6,86a1.57,1.57,0,0,0,0-.6l.19,0,.3,2-.18,0a1,1,0,0,0-.6-.58,4.34,4.34,0,0,0-.89-.24l-5.71-1.29,0-.08,5.22-3a3.36,3.36,0,0,0,.91-.65.67.67,0,0,0,.11-.44ZM20.3,84.15,18.12,85.4l2.46.55Zm-1.79-9.88a4.07,4.07,0,0,1,2.26.62A2.73,2.73,0,0,1,22,76.61a1.66,1.66,0,0,0,1.33-1.71,2.35,2.35,0,0,0-.05-.37h.31a4,4,0,0,1,.21,1.19,2.4,2.4,0,0,1-.45,1.48,2.79,2.79,0,0,1-1.32,1A3,3,0,0,1,20.84,80a4,4,0,0,1-2.25.68A3.75,3.75,0,0,1,16,79.74,3.07,3.07,0,0,1,16,75.2a3.66,3.66,0,0,1,2.55-.93Zm.15,1.58a6.28,6.28,0,0,0-2.38.37,1.36,1.36,0,0,0-.91,1.27c0,.6.39,1,1.18,1.29a6.25,6.25,0,0,0,2,.25,4.89,4.89,0,0,0,2.6-.57,1.18,1.18,0,0,0,.58-1.06,1.16,1.16,0,0,0-.6-1,4.57,4.57,0,0,0-2.5-.52Zm1.67-6.72a2,2,0,0,1,1.48.74,2,2,0,0,1,.47,1.46,2.79,2.79,0,0,1-.4,1.14.87.87,0,0,0-.12.34c0,.2.11.35.38.48v.16l-2.58-.18,0-.16a3.44,3.44,0,0,0,1.56-.53,1.59,1.59,0,0,0,.79-1.25,1.1,1.1,0,0,0-.21-.75.92.92,0,0,0-.74-.39,1.19,1.19,0,0,0-.93.38,7.08,7.08,0,0,0-.58.78,10.93,10.93,0,0,1-.67.92,2.51,2.51,0,0,1-.95.69,2.19,2.19,0,0,1-.89.13,2,2,0,0,1-1.39-.65,2,2,0,0,1-.33-1.89c0-.06.11-.22.26-.47a1.48,1.48,0,0,0,.19-.42c0-.14-.14-.25-.45-.34l0-.13,2.27.11v.18a2.67,2.67,0,0,0-1.35.47,1.45,1.45,0,0,0-.67,1.1,1,1,0,0,0,.18.68.85.85,0,0,0,.66.36,1.14,1.14,0,0,0,.91-.44,8,8,0,0,0,.65-.91,5.36,5.36,0,0,1,1-1.15,2,2,0,0,1,1.48-.46Zm-1.95-6.67,0,.15a4,4,0,0,0-.83.12,1.29,1.29,0,0,0-.65.43,1.4,1.4,0,0,0-.18.57l-.08.44,5.2.88a3.69,3.69,0,0,0,.49.07.56.56,0,0,0,.42-.17.71.71,0,0,0,.16-.38l0-.19.2,0-.52,3.08-.2,0,0-.2a.57.57,0,0,0-.25-.65,1.94,1.94,0,0,0-.61-.15l-5.2-.88L16.3,66a1.17,1.17,0,0,0,.14.92,2.13,2.13,0,0,0,1.07.67l0,.17-1.82-.32.89-5.29Zm6.79-5-.9,2.75-.19-.07,0-.11c.12-.37.08-.59-.14-.66l-.19,0H23.4l-.9,0-.67,2,.55.45a1.85,1.85,0,0,0,.48.29.47.47,0,0,0,.46-.07,1.48,1.48,0,0,0,.3-.51l.18.06-.62,1.88L23,63.45a1,1,0,0,0-.26-.78,5.31,5.31,0,0,0-.68-.62l-4.5-3.75,0-.08,6-.28a3.41,3.41,0,0,0,1.11-.17.6.6,0,0,0,.3-.34ZM22.1,59.43l-2.51.11,1.94,1.61ZM21.44,49a2.24,2.24,0,0,0-.08.43.62.62,0,0,0,.2.4,2.48,2.48,0,0,0,.61.32l5.26,2.18-.06.14L20.58,54l4,1.65c.62.25,1,.14,1.23-.34l.05-.13.18.08-.81,2-.17-.08a.9.9,0,0,0,.05-.71,1.14,1.14,0,0,0-.64-.49L20,54.16l-.23.05a1.2,1.2,0,0,0-.44.16.88.88,0,0,0-.26.36l-.18-.07.81-2,5.05-1.11L22,50.46a1.58,1.58,0,0,0-.83-.17.79.79,0,0,0-.53.55l-.17-.07.75-1.83Zm12.08-6.52-1.77,2.56-.16-.11.11-.16a.58.58,0,0,0,.05-.69,2.71,2.71,0,0,0-.49-.4l-4.17-2.87,3.83,5.43-.06.09-6.42-1.61,4,2.73a5.23,5.23,0,0,0,.52.34.76.76,0,0,0,1-.38l.16.11-1.17,1.69-.16-.11,0-.06a.68.68,0,0,0,.12-.67.77.77,0,0,0-.22-.32,4.24,4.24,0,0,0-.42-.3L24.68,45.3a3.74,3.74,0,0,0-.41-.26.51.51,0,0,0-.45,0,.8.8,0,0,0-.31.28l-.11.15-.16-.11,1.39-2,4.66,1.17L26.51,40.6l1.38-2,.16.11-.11.16a.58.58,0,0,0-.06.69,2.71,2.71,0,0,0,.49.4l3.7,2.55c.23.15.37.25.42.27a.48.48,0,0,0,.45,0,.63.63,0,0,0,.3-.27l.12-.15Zm-.32-9.28-.09.09a.64.64,0,0,0-.12.8,2.21,2.21,0,0,0,.39.44l1.9,1.78a8.35,8.35,0,0,1,1,1.1,2.13,2.13,0,0,1,.39,1.36A2.2,2.2,0,0,1,36,40.15a2.3,2.3,0,0,1-1,.71,1.86,1.86,0,0,1-1.21,0,3.21,3.21,0,0,1-1.1-.74l-2.44-2.29-.39-.36a.59.59,0,0,0-.48-.11,1.26,1.26,0,0,0-.42.32l-.14-.13L31,35.31l.14.13-.11.12c-.25.26-.33.5-.22.69a2.52,2.52,0,0,0,.49.55l2.44,2.29a5.55,5.55,0,0,0,.73.62,1.11,1.11,0,0,0,1.49-.21,1.31,1.31,0,0,0,.23-1.61,4.62,4.62,0,0,0-1-1.17l-2-1.91c-.37-.34-.67-.48-.88-.42a1.07,1.07,0,0,0-.47.33l-.15-.13,1.42-1.51Zm7.27-.06a2,2,0,0,1-.25,2.93,2.75,2.75,0,0,1-1.1.5,1,1,0,0,0-.33.14c-.15.13-.17.33-.08.62l-.12.1-1.65-2,.12-.1a3.43,3.43,0,0,0,1.46.76A1.57,1.57,0,0,0,40,35.82a1,1,0,0,0,.39-.67.92.92,0,0,0-.22-.8,1.2,1.2,0,0,0-.93-.41,5.06,5.06,0,0,0-1,.12,7,7,0,0,1-1.13.14A2.37,2.37,0,0,1,36,34a1.85,1.85,0,0,1-.71-.55A2,2,0,0,1,34.78,32a1.73,1.73,0,0,1,.65-1.24,2.22,2.22,0,0,1,.49-.3,3.59,3.59,0,0,1,.51-.15,1.26,1.26,0,0,0,.44-.14c.11-.09.09-.28-.06-.55l.1-.09,1.49,1.72-.13.12A2.67,2.67,0,0,0,37,30.7a1.46,1.46,0,0,0-1.26.29.93.93,0,0,0-.36.59.89.89,0,0,0,.19.73,1.16,1.16,0,0,0,.95.34,7,7,0,0,0,1.11-.15,4.87,4.87,0,0,1,1.49-.1,2.05,2.05,0,0,1,1.36.75Zm2.94-7.94a.78.78,0,0,0-.25.42A5.72,5.72,0,0,0,43.24,27l.35,2.77.94,1.35c.16.22.26.36.3.4a.55.55,0,0,0,.41.18.64.64,0,0,0,.37-.14l.27-.19.11.17-2.75,1.91-.11-.16.26-.18a.82.82,0,0,0,.28-.32.6.6,0,0,0,0-.3,2.59,2.59,0,0,0-.33-.56l-.78-1.12-2.82-1.6c-.44-.25-.69-.38-.77-.41a.82.82,0,0,0-.77,0l-.11-.16L40.45,27l.11.17-.11.06c-.25.18-.33.34-.22.48a3,3,0,0,0,.81.55l2.17,1.23-.28-2.29a3.2,3.2,0,0,0-.25-1.05c-.13-.18-.38-.16-.76.07l-.12-.16,1.5-1Zm7.69.56,1,2.2-4.6,2.63-.1-.17.17-.1a.57.57,0,0,0,.35-.59,3,3,0,0,0-.27-.58l-2.23-3.89a3.22,3.22,0,0,0-.26-.43.53.53,0,0,0-.39-.22.74.74,0,0,0-.4.11l-.17.1-.09-.17,2.76-1.58.1.17-.22.13a.56.56,0,0,0-.36.6,2.64,2.64,0,0,0,.27.58l2.16,3.78.26.43a.47.47,0,0,0,.41.2,2,2,0,0,0,.48-.22l.44-.25a1.48,1.48,0,0,0,.77-1.36,5.61,5.61,0,0,0-.23-1.28Zm9.38-.85L57.55,26l-.07-.19.19-.06a.59.59,0,0,0,.44-.53,2.94,2.94,0,0,0-.17-.62l-1.73-4.75,0,6.65-.11,0-4.29-5L53.42,26a4.58,4.58,0,0,0,.23.58c.21.33.54.4,1,.24l.07.18-1.93.7-.07-.18.06,0a.75.75,0,0,0,.5-.48.85.85,0,0,0,0-.39,3.45,3.45,0,0,0-.17-.49l-1.46-4.05a3.77,3.77,0,0,0-.19-.46.53.53,0,0,0-.34-.29.76.76,0,0,0-.41.05l-.19.07-.06-.19,2.3-.83,3.11,3.65V19.31l2.28-.82.07.18-.19.07a.56.56,0,0,0-.44.52,2,2,0,0,0,.17.61l1.52,4.22a4.32,4.32,0,0,0,.19.47.53.53,0,0,0,.35.28.68.68,0,0,0,.41,0l.18-.07Zm6.45-1.39-2.81.65,0-.19.11,0c.38-.09.54-.24.49-.46a.47.47,0,0,0-.07-.17A2.88,2.88,0,0,0,64.4,23l-.49-.76-2.07.48-.09.7a1.73,1.73,0,0,0,0,.56.46.46,0,0,0,.29.36,1.47,1.47,0,0,0,.6,0l0,.19L60.75,25l0-.19a1,1,0,0,0,.54-.63,6.65,6.65,0,0,0,.18-.91l.86-5.79.09,0,3.35,5a3.69,3.69,0,0,0,.71.86.7.7,0,0,0,.46.08Zm-3.25-1.62-1.4-2.1-.37,2.5Zm9.21-5.41a2.33,2.33,0,0,0-.42.12.56.56,0,0,0-.26.35,2.66,2.66,0,0,0,0,.69l.4,5.69h-.15L68,18l.3,4.33c0,.66.33,1,.86.94h.13l0,.2-2.13.15v-.19a.91.91,0,0,0,.67-.27,1.18,1.18,0,0,0,.14-.79l-.33-4.82-.14-.17a1.44,1.44,0,0,0-.35-.33.9.9,0,0,0-.44-.07v-.19l2.12-.14,3.23,4-.2-2.93a1.5,1.5,0,0,0-.22-.82.76.76,0,0,0-.72-.23v-.19l2-.14Zm6.85,3.38A3.59,3.59,0,0,1,79,22.2a3.08,3.08,0,0,1-1.79,1,3.77,3.77,0,0,1-.85.05l-2.67,0V23h.2a.59.59,0,0,0,.61-.34,3.2,3.2,0,0,0,0-.64l.06-4.48c0-.28,0-.44,0-.5a.55.55,0,0,0-.22-.39.76.76,0,0,0-.4-.1h-.2v-.2l2.67,0a3.9,3.9,0,0,1,1.72.35A2.79,2.79,0,0,1,79.37,18a4.23,4.23,0,0,1,.37,1.86Zm-1.59,0c0-1.61-.33-2.59-1.06-3A2.46,2.46,0,0,0,76,16.78L76,22.11v.37a.33.33,0,0,0,.15.3.63.63,0,0,0,.34.08,1.26,1.26,0,0,0,1.13-.56,4.31,4.31,0,0,0,.56-2.4Zm8.26,4.6L83.56,24l0-.2.12,0c.39.07.6,0,.64-.23v-.19a2.26,2.26,0,0,0-.07-.39l-.16-.89L82,21.79l-.35.61a1.61,1.61,0,0,0-.21.52.45.45,0,0,0,.13.44,1.44,1.44,0,0,0,.55.22l0,.2-2-.34,0-.2a1,1,0,0,0,.74-.37,5.48,5.48,0,0,0,.51-.77l3-5h.09L85.72,23a3,3,0,0,0,.34,1.06.66.66,0,0,0,.39.26ZM84,21.74l-.49-2.46-1.3,2.16Zm9.25,4.94-1.79-.59-.84-3.56-.37-.13-.6,1.81c-.09.27-.14.44-.16.51a.55.55,0,0,0,.11.46,1.49,1.49,0,0,0,.51.25l-.06.19-2.9-1,.06-.19c.4.14.68.11.83,0a2.71,2.71,0,0,0,.27-.64l1.41-4.22a5.09,5.09,0,0,0,.14-.5.52.52,0,0,0-.11-.46,1.22,1.22,0,0,0-.51-.26l.06-.17L92,19a6.1,6.1,0,0,1,1.22.5,1.75,1.75,0,0,1,.81,1,1.83,1.83,0,0,1,0,1.13,1.65,1.65,0,0,1-1.8,1.21l.63,2.65a3.39,3.39,0,0,0,.21.66.63.63,0,0,0,.34.28Zm-.71-5.44c.32-1,.06-1.59-.79-1.87l-.45-.15-.94,2.84.24.08a2.86,2.86,0,0,0,.76.16,1,1,0,0,0,.75-.29,1.92,1.92,0,0,0,.43-.77Zm8.82,1.62a.84.84,0,0,0-.5,0,6.35,6.35,0,0,0-1.08.8l-2.14,1.79L97,27c-.1.26-.17.41-.18.47a.6.6,0,0,0,.07.44.65.65,0,0,0,.31.24l.31.12-.08.18-3.09-1.27.08-.18.28.11a.69.69,0,0,0,.43.07.49.49,0,0,0,.26-.16,2.74,2.74,0,0,0,.29-.56l.51-1.26-.18-3.25c0-.5,0-.79-.07-.87a.76.76,0,0,0-.45-.61l.08-.18,2.64,1.08-.08.19-.11-.06c-.29-.12-.46-.1-.53.07a3.59,3.59,0,0,0,0,1l.14,2.5,1.78-1.49a3.39,3.39,0,0,0,.75-.77c.08-.21-.07-.41-.48-.6l.08-.18,1.68.69Zm6.51,8A3.65,3.65,0,0,1,106,32.41a3.06,3.06,0,0,1-2-.18,4.7,4.7,0,0,1-.73-.43L101,30.28l.11-.16.16.11a.57.57,0,0,0,.69.06,2.25,2.25,0,0,0,.4-.5l2.55-3.69a3.6,3.6,0,0,0,.27-.42.6.6,0,0,0,0-.45.72.72,0,0,0-.28-.3l-.16-.12.11-.16,2.19,1.52a3.66,3.66,0,0,1,1.24,1.25,2.79,2.79,0,0,1,.29,1.74,4.2,4.2,0,0,1-.72,1.74ZM106.56,30c.92-1.32,1.17-2.33.77-3.05a2.65,2.65,0,0,0-.78-.72l-3,4.39c-.13.18-.2.29-.21.31a.38.38,0,0,0,0,.33.72.72,0,0,0,.24.26,1.28,1.28,0,0,0,1.26.17,4.34,4.34,0,0,0,1.8-1.69Zm2.21,6.06-2.37-2,.12-.14.15.12a.56.56,0,0,0,.67.13,2.31,2.31,0,0,0,.46-.46l2.91-3.41a4.13,4.13,0,0,0,.31-.39.54.54,0,0,0,.08-.44.72.72,0,0,0-.25-.33l-.14-.13.12-.15,2.38,2-.12.15-.16-.13a.57.57,0,0,0-.68-.12,2,2,0,0,0-.45.44l-2.91,3.42-.32.38a.56.56,0,0,0-.06.45.61.61,0,0,0,.24.33l.15.14Zm9.34-.41a1.34,1.34,0,0,0-.38-.22.51.51,0,0,0-.43,0,2,2,0,0,0-.52.45l-3.91,4.15-.11-.11.95-6.9-3,3.16c-.46.49-.5.9-.12,1.26l.11.1-.14.14-1.55-1.46.12-.13a.93.93,0,0,0,.66.3,1.2,1.2,0,0,0,.68-.43l3.3-3.52,0-.23a1.07,1.07,0,0,0,0-.47,1,1,0,0,0-.25-.37l.13-.14,1.55,1.46-.76,5.11,2-2.14A1.5,1.5,0,0,0,117,35a.76.76,0,0,0-.32-.69l.13-.13,1.43,1.35Zm-2.42,7.65-2-2.4.15-.12L114,41a.57.57,0,0,0,.65.24,2.6,2.6,0,0,0,.52-.37L118.58,38a4.72,4.72,0,0,0,.37-.33.55.55,0,0,0,.16-.43.87.87,0,0,0-.18-.36l-.13-.15.14-.13,2,2.4-.16.13-.12-.16a.58.58,0,0,0-.65-.24,2.22,2.22,0,0,0-.52.37l-3.45,2.87-.38.33a.54.54,0,0,0-.14.43.7.7,0,0,0,.18.37l.13.15Zm6.16,5.79a1.66,1.66,0,0,1-1.38.21A2.76,2.76,0,0,1,118.93,48l-1.6-2.58.16-.1c.23.36.45.52.68.49a2.74,2.74,0,0,0,.62-.32l3.77-2.34c.24-.15.38-.25.43-.29a.54.54,0,0,0,.21-.43,1.34,1.34,0,0,0-.22-.52l.16-.1,1.51,2.44a4.08,4.08,0,0,1,.53,1.05,1.58,1.58,0,0,1-.11,1.19,1.7,1.7,0,0,1-.62.68c-.61.38-1.29.24-2-.41a2.71,2.71,0,0,1,.16,1.3,1.54,1.54,0,0,1-.74,1Zm1.82-3.2a1.23,1.23,0,0,0,.69-1.14,2.12,2.12,0,0,0-.37-.87l-2.29,1.42c.37.59.78.88,1.25.85a1.51,1.51,0,0,0,.72-.26ZM121,47.83a1.92,1.92,0,0,0,.61-.59,1.14,1.14,0,0,0,.19-.76,2.83,2.83,0,0,0-.41-.94l-2.08,1.29c-.32.19-.39.42-.22.7a1.14,1.14,0,0,0,1.18.57,1.81,1.81,0,0,0,.73-.27Zm2.23,8.33L122,53.57l.18-.09.05.11c.17.35.36.47.56.37a.44.44,0,0,0,.15-.1,2.27,2.27,0,0,0,.28-.28l.63-.65L122.88,51l-.71.06a1.64,1.64,0,0,0-.54.13.46.46,0,0,0-.29.36,1.36,1.36,0,0,0,.14.58l-.17.09-.87-1.79.18-.09a1,1,0,0,0,.73.39,6.69,6.69,0,0,0,.93,0l5.84-.45,0,.07L124,54.73a3.44,3.44,0,0,0-.68.89.62.62,0,0,0,0,.46Zm.86-3.53,1.72-1.83-2.51.2Zm2.41,7.46a2,2,0,0,1-1.66-.12,1.94,1.94,0,0,1-1-1.17,2.56,2.56,0,0,1-.08-1.2.79.79,0,0,0,0-.36c-.06-.19-.23-.28-.53-.3l-.06-.15L125.6,56l.06.15a3.39,3.39,0,0,0-1.25,1.1,1.6,1.6,0,0,0-.25,1.46,1.12,1.12,0,0,0,.48.61,1,1,0,0,0,.84.08,1.23,1.23,0,0,0,.71-.72,5.81,5.81,0,0,0,.24-.94,6.9,6.9,0,0,1,.27-1.11,2.35,2.35,0,0,1,.61-1,1.88,1.88,0,0,1,.77-.47,2,2,0,0,1,1.52.06,1.78,1.78,0,0,1,.93,1.05,2.3,2.3,0,0,1,.11.57q0,.11-.06.54a1.17,1.17,0,0,0,0,.46c0,.13.22.18.53.14l0,.12-2.13.78-.06-.18a2.67,2.67,0,0,0,1.07-1,1.49,1.49,0,0,0,.18-1.28,1,1,0,0,0-.42-.55.86.86,0,0,0-.75-.08,1.18,1.18,0,0,0-.67.76,9.51,9.51,0,0,0-.25,1.09,5.17,5.17,0,0,1-.44,1.43,2.07,2.07,0,0,1-1.19,1Zm3.19,6.72a4,4,0,0,1-2.34-.14,2.7,2.7,0,0,1-1.6-1.42,1.77,1.77,0,0,0-.81,2.32l-.3.07a4.74,4.74,0,0,1-.46-1.12,2.45,2.45,0,0,1,.13-1.54,2.8,2.8,0,0,1,1.09-1.24,2.88,2.88,0,0,1,.81-2,3.92,3.92,0,0,1,2.05-1.14,3.69,3.69,0,0,1,2.72.32,3.06,3.06,0,0,1,1,4.43,3.71,3.71,0,0,1-2.29,1.45Zm-.48-1.52a6,6,0,0,0,2.25-.87,1.34,1.34,0,0,0,.62-1.42c-.13-.59-.61-.94-1.42-1a6.44,6.44,0,0,0-2,.18,5,5,0,0,0-2.42,1.12,1.16,1.16,0,0,0-.34,1.15,1.17,1.17,0,0,0,.8.88,4.69,4.69,0,0,0,2.56,0Zm-2.35,9-.2-2.89h.19v.12c0,.39.16.58.38.56a.81.81,0,0,0,.19,0,3.81,3.81,0,0,0,.36-.16l.82-.37-.14-2.11-.68-.2a1.56,1.56,0,0,0-.55-.09.51.51,0,0,0-.41.23,1.46,1.46,0,0,0-.07.59h-.2l-.14-2h.2a1,1,0,0,0,.53.63,8.76,8.76,0,0,0,.87.32l5.59,1.75v.09l-5.44,2.54a3.14,3.14,0,0,0-1,.57.59.59,0,0,0-.15.43Zm2.12-3,2.28-1-2.41-.76ZM126.53,81.5l.13-1.88,3.24-1.7,0-.39L128,77.39l-.52,0a.55.55,0,0,0-.42.23,1.29,1.29,0,0,0-.13.56l-.19,0,.21-3h.2c0,.43,0,.69.26.79a2.42,2.42,0,0,0,.69.11l4.42.31a3.28,3.28,0,0,0,.53,0,.52.52,0,0,0,.42-.22,1.31,1.31,0,0,0,.12-.55h.19l-.19,2.77a7.26,7.26,0,0,1-.18,1.29,1.82,1.82,0,0,1-.79,1,1.85,1.85,0,0,1-1.1.24,1.63,1.63,0,0,1-1.63-1.44l-2.41,1.28a3.45,3.45,0,0,0-.58.36.69.69,0,0,0-.2.41Zm5.1-2c1,.08,1.55-.34,1.61-1.23l0-.47-3-.21,0,.25a3.07,3.07,0,0,0,0,.79,1,1,0,0,0,.47.64,1.87,1.87,0,0,0,.86.23Zm-6.47,10.22.52-3.08.19,0,0,.19a.58.58,0,0,0,.24.65,3.16,3.16,0,0,0,.62.15l5,.84-5.78-3.3,0-.11,6.5-1.25L127.69,83a3.18,3.18,0,0,0-.61-.08c-.39,0-.62.26-.7.75l-.19,0,.34-2,.19,0v.07a.72.72,0,0,0,.17.67,1.17,1.17,0,0,0,.34.19l.51.1,4.25.72a3.69,3.69,0,0,0,.49.07.53.53,0,0,0,.41-.17.7.7,0,0,0,.16-.38l0-.19.19,0-.41,2.42-4.71.9,4.16,2.35-.4,2.4-.2,0,0-.2a.56.56,0,0,0-.23-.64,2,2,0,0,0-.62-.15L126.46,89,126,89a.54.54,0,0,0-.42.16.75.75,0,0,0-.17.38l0,.19Zm0,0"/><path class="cls-5" d="M122.87,95.89l.9-2.75.19.07,0,.11c-.13.37-.08.59.13.66l.19,0a2.9,2.9,0,0,0,.39,0l.9,0,.67-2-.55-.45a1.67,1.67,0,0,0-.47-.29.48.48,0,0,0-.47.07,1.51,1.51,0,0,0-.29.51l-.19-.06.63-1.88.18.06a1,1,0,0,0,.26.78,4.65,4.65,0,0,0,.68.62l4.51,3.75,0,.08-6,.28a3.41,3.41,0,0,0-1.11.17.64.64,0,0,0-.3.34ZM126,94l2.51-.12-1.94-1.61ZM122.41,101a2,2,0,0,1-1.06-1.28,2,2,0,0,1,.17-1.53,2.88,2.88,0,0,1,.82-.88.78.78,0,0,0,.26-.25c.09-.18,0-.37-.16-.6l.08-.14,2.28,1.21-.08.14a3.4,3.4,0,0,0-1.65-.15,1.56,1.56,0,0,0-1.22.82,1.05,1.05,0,0,0-.12.77,1,1,0,0,0,.51.66,1.24,1.24,0,0,0,1,0,5,5,0,0,0,.84-.47,8.47,8.47,0,0,1,1-.56,2.59,2.59,0,0,1,1.14-.25,2.12,2.12,0,0,1,.87.25,1.91,1.91,0,0,1,1,1.15,1.72,1.72,0,0,1-.12,1.4,1.89,1.89,0,0,1-.34.46,5.13,5.13,0,0,1-.42.33c-.2.15-.32.24-.35.31s0,.28.26.48l0,.12-2-1,.09-.17a2.49,2.49,0,0,0,1.42.12,1.48,1.48,0,0,0,1.06-.73,1,1,0,0,0,.11-.69.85.85,0,0,0-.46-.6,1.14,1.14,0,0,0-1,0,8.77,8.77,0,0,0-1,.57,5.55,5.55,0,0,1-1.34.66,2,2,0,0,1-1.54-.18Zm.53,8.42A.81.81,0,0,0,123,109a5.81,5.81,0,0,0-.62-1.19l-1.44-2.4-1.41-.86a3.59,3.59,0,0,0-.42-.25.51.51,0,0,0-.45,0,.66.66,0,0,0-.28.27l-.18.29-.17-.11,1.75-2.86.17.11-.16.26a.72.72,0,0,0-.13.41.47.47,0,0,0,.11.28,2.41,2.41,0,0,0,.52.37l1.16.72,3.24.32a8.15,8.15,0,0,0,.86.07.77.77,0,0,0,.68-.36l.17.11-1.49,2.44-.17-.1.07-.1c.17-.27.17-.45,0-.54a3.69,3.69,0,0,0-1-.17l-2.49-.25,1.19,2a3.24,3.24,0,0,0,.64.86c.2.12.42,0,.67-.37l.17.1-1,1.56Zm0,0"/><path class="cls-4" d="M30.75,114.44l.73-.73v-1h1.05l.75-.75.75.75h1v1l.75.75-.75.75v1.06H34l-.73.73-.73-.73H31.48v-1.08Zm0,0"/><path class="cls-5" d="M28.06,114.44l1.51-1.51v-2.16h2.17l1.54-1.55,1.55,1.55H37v2.12l1.54,1.55L37,116v2.16H34.79l-1.51,1.51-1.51-1.51h-2.2V116Zm1.13,0,1.18-1.18v-1.7h1.7l1.21-1.21,1.21,1.21h1.67v1.67l1.22,1.21-1.22,1.22v1.7H34.47l-1.19,1.18-1.19-1.18H30.37v-1.73Zm0,0"/><path class="cls-5" d="M30.73,114.44l.74-.73v-1.06h1.06l.75-.76.76.76h1v1l.75.75-.75.76v1.06H34l-.74.73-.73-.73H31.47v-1.08Zm.56,0,.57-.58V113h.83l.59-.59.59.59h.82v.81l.59.59-.59.59v.83h-.83l-.58.58-.58-.58h-.84V115Zm0,0"/><path class="cls-4" d="M112.82,114.44l.73-.73v-1h1.06l.75-.75.75.75h1v1l.75.75-.75.75v1.06h-1l-.73.73-.74-.73h-1.07v-1.08Zm0,0"/><path class="cls-5" d="M110.14,114.44l1.51-1.51v-2.16h2.16l1.55-1.55,1.54,1.55H119v2.12l1.55,1.55L119,116v2.16h-2.16l-1.51,1.51-1.51-1.51h-2.2V116Zm1.12,0,1.18-1.18v-1.7h1.7l1.22-1.21,1.21,1.21h1.67v1.67l1.22,1.21-1.22,1.22v1.7h-1.7l-1.18,1.18-1.19-1.18h-1.73v-1.73Zm0,0"/><path class="cls-5" d="M112.81,114.44l.74-.73v-1.06h1l.76-.76.75.76h1v1l.76.75-.76.76v1.06h-1.06l-.73.73-.74-.73h-1.07v-1.08Zm.55,0,.58-.58V113h.83l.59-.59.59.59h.81v.81l.6.59-.6.59v.83h-.82l-.58.58-.58-.58h-.84V115Zm0,0"/><path class="cls-2" d="M47.2,91.4c.54,0,.81.39.83.92s0,1.15,0,1.72V101c0,1.6.1,2-1.45,2v.63h5.73V103a2,2,0,0,1-1.12-.18,1,1,0,0,1-.35-1c-.05-.12-.07-4,0-4.26.16-.06,3.3,0,3.43,0,0,.36,0,4.09,0,4.12a1.44,1.44,0,0,1-.29,1.09,2,2,0,0,1-1.15.2v.63h5.69V103a4.36,4.36,0,0,1-.81,0c-.79-.21-.62-1.2-.62-2V94c0-.56,0-1.16,0-1.71s.25-.9.83-.91a2.24,2.24,0,0,1,.59,0v-.62H52.82v.62a2.64,2.64,0,0,1,.58,0c.62,0,.9.5.86,1.13,0,.06,0,3.59,0,3.94a30.19,30.19,0,0,1-3.43,0c-.05-.23,0-3.76,0-3.85a1.24,1.24,0,0,1,.31-1,2.05,2.05,0,0,1,1.16-.19v-.64H46.58v.62a2.43,2.43,0,0,1,.61,0Zm23.68,0c.53,0,.8.38.82.9s0,1.16,0,1.73V101c0,.84.14,1.78-.65,2-.26.07-.62,0-.82.06v.63h9.55l.43-4.71c-.66,0-.57-.06-.64.21-.28,1.19-.72,2.72-1.85,3.27a5.66,5.66,0,0,1-2.42.23c-.5,0-.69-.13-.78-.61a11.84,11.84,0,0,1,0-1.34V95.27c0-.9,0-1.84,0-2.73,0-1.21.53-1.15,1.58-1.15v-.64H70.26v.62a1.8,1.8,0,0,1,.62,0Zm21.31,12.23h9.55l.42-4.72h-.58a10.1,10.1,0,0,1-.62,2c-.81,1.76-1.85,1.75-3.55,1.71-.48,0-.74,0-.88-.43a4.8,4.8,0,0,1-.08-1.21V95.75a36.61,36.61,0,0,1,.08-3.82.84.84,0,0,1,.78-.53,2.84,2.84,0,0,1,.72,0v-.62H92.19v.64c.65,0,1.12-.07,1.36.47a5.85,5.85,0,0,1,.11,1.7v7.27a5.81,5.81,0,0,1-.12,1.7c-.28.58-.71.38-1.35.46Zm-28.74-8.3,1.34,3.74H62ZM58.69,103v.61h3.74a2.21,2.21,0,0,0,0-.63c-.82,0-1.43-.11-1.32-1.06a11.07,11.07,0,0,1,.6-1.87h3.51c0,.22.51,1.47.63,1.83.37,1.06,0,1.1-1.07,1.1v.63H70V103c-.4-.08-.57-.07-.78-.34a10.77,10.77,0,0,1-1-2.32l-2.4-6.58c-.39-1.1-.8-2.2-1.21-3.29h-.32c-.11.21-.22.58-.32.82l-3.39,9.11a6.23,6.23,0,0,1-1.14,2.27,1.63,1.63,0,0,1-.75.34ZM84,99.08a9.18,9.18,0,0,1,.34-1c.11-.3.23-.61.35-.92,0-.06.63-1.81.71-1.86l1.34,3.73Zm-3.38,4.54h3.73V103a4.11,4.11,0,0,1-1-.19.86.86,0,0,1-.32-.89,4.75,4.75,0,0,1,.27-1,8.23,8.23,0,0,0,.32-.91h3.52c.06.24.51,1.43.64,1.81.37,1.11-.07,1.12-1.09,1.12v.65H92V103c-.78,0-.94-.44-1.21-1-.4-.86-1.5-4-1.83-4.9-.38-1.1-.81-2.19-1.2-3.29s-.9-2.35-1.2-3.3h-.34c-.44,1.09-.82,2.22-1.24,3.32S84.18,96,83.76,97.1s-.82,2.22-1.23,3.31a6.13,6.13,0,0,1-1.16,2.26c-.38.33-.53.25-.75.35Zm0,0"/></svg>